<svg xmlns="http://www.w3.org/2000/svg" width="429" height="552" viewBox="0 0 429 552"><g fill="#FFF" fill-rule="evenodd"><g fill-rule="nonzero" transform="translate(0 502)"><polygon points="0 49 0 0 10 0 10 49"/><polygon points="21 49 21 0 31.26 0 50.185 30.195 50.493 30.195 50.493 0 60 0 60 49 50.566 49 30.805 17.174 30.507 17.174 30.507 49"/><polygon points="81.005 49 81.005 8.579 67 8.579 67 0 105 0 105 8.579 90.985 8.579 90.985 49"/><polygon points="112 49 112 0 145 0 145 8.247 121.957 8.247 121.957 20.177 141.701 20.177 141.701 28.386 121.957 28.386 121.957 40.753 145 40.753 145 49"/><path d="M154 49 154 0 176.873649 0C179.950698 0 182.433918.352951641 184.323309 1.05885492 186.2127 1.76475821 187.647123 2.79430868 188.626579 4.14750636 189.606035 5.50070403 190.269567 7.13785807 190.617175 9.05896848 190.964782 10.9800789 191.138586 13.1321009 191.138586 15.5150345 191.138586 17.1701793 190.991033 18.9529282 190.695929 20.8632812 190.400825 22.7736343 189.778753 24.5306027 188.829712 26.1341865 187.880672 27.7377703 186.397004 28.9286807 184.378709 29.7069177L192 49 181.591333 49 174.320908 29.3185411 176.784575 30.6795285C176.442037 30.8471945 176.057496 30.9460506 175.630953 30.9760969 175.20441 31.0061433 174.697845 31.0211664 174.111257 31.0211664L163.870962 31.0211664 163.870962 49 154 49ZM163.870962 22.8875136 172.885941 22.8875136C174.824576 22.8875136 176.356764 22.769554 177.482505 22.5336346 178.608246 22.2977153 179.443952 21.9017343 179.989623 21.3456918 180.535294 20.7896492 180.884531 20.0436841 181.037333 19.1077966 181.190136 18.1719091 181.266537 16.9869337 181.266537 15.5528706 181.266537 14.083939 181.193214 12.8728122 181.046567 11.9194904 180.89992 10.9661685 180.566796 10.2202035 180.047196 9.6815952 179.527595 9.14298692 178.703476 8.76295649 177.574838 8.54150391 176.446201 8.32005133 174.900253 8.20932504 172.936996 8.20932504L163.870962 8.20932504 163.870962 22.8875136ZM196 49 212.319752 0 225.680248 0 242 49 231.814677 49 228.295354 38.1410338 209.405432 38.1410338 205.956254 49 196 49ZM211.949297 29.9595294 225.681344 29.9595294 219.004384 9.18638717 218.616393 9.18638717 211.949297 29.9595294ZM266.904897 50C263.406421 50 260.478923 49.7601133 258.122401 49.28034 255.765879 48.8005667 253.843234 48.0011911 252.354467 46.8822132 250.8657 45.7632354 249.739823 44.2552971 248.976834 42.3583984 248.213845 40.4614998 247.693626 38.083903 247.416176 35.2256081 247.138725 32.3673133 247 28.9587772 247 25 247 21.0412228 247.138725 17.6326867 247.416176 14.7743919 247.693626 11.916097 248.213845 9.53850024 248.976834 7.64160156 249.739823 5.74470289 250.8657 4.23676462 252.354467 3.11778675 253.843234 1.99880889 255.765879 1.1994333 258.122401.719659979 260.478923.23988666 263.406421 0 266.904897 0 268.264693 0 269.67037.048828125 271.121926.146484375 272.573483.244140625 273.967419.38766572 275.303732.577059659 276.640046.766453598 277.779652.982850971 278.72255 1.22625178L278.72255 8.91557173C277.475468 8.77352628 276.27228 8.64479759 275.112985 8.52938565 273.953691 8.41397372 272.876764 8.33425811 271.882206 8.29023881 270.887647 8.24621952 270.038858 8.22420987 269.33584 8.22420987 266.988349 8.22420987 265.053602 8.31576261 263.531599 8.49886808 262.009596 8.68197354 260.797557 9.07333836 259.895482 9.67296254 258.993407 10.2725867 258.324889 11.1796061 257.889928 12.3940208 257.454966 13.6084354 257.174264 15.2347449 257.047822 17.2729492 256.92138 19.3111535 256.858159 21.8868371 256.858159 25 256.858159 28.0724728 256.92138 30.6379838 257.047822 32.6965332 257.174264 34.7550826 257.454966 36.3930442 257.889928 37.6104181 258.324889 38.8277921 258.993407 39.7348115 259.895482 40.3314764 260.797557 40.9281413 262.009596 41.3180265 263.531599 41.5011319 265.053602 41.6842374 266.988349 41.7757901 269.33584 41.7757901 270.843031 41.7757901 272.505385 41.7079116 274.322902 41.5721547 276.140419 41.4363977 277.699451 41.2738222 279 41.0844283L279 48.9257813C277.982682 49.1151752 276.77281 49.2942116 275.370385 49.4628906 273.96796 49.6315696 272.537899 49.7632576 271.080201 49.8579545 269.622502 49.9526515 268.230734 50 266.904897 50Z"/><polygon points="297.005 49 297.005 8.579 283 8.579 283 0 321 0 321 8.579 306.985 8.579 306.985 49"/><polygon points="328 49 328 0 338 0 338 49"/><polygon points="361.053 49 346 0 355.993 0 367.468 38.218 367.864 38.218 379.221 0 389 0 373.945 49"/><polygon points="396 49 396 0 429 0 429 8.247 405.957 8.247 405.957 20.177 425.701 20.177 425.701 28.386 405.957 28.386 405.957 40.753 429 40.753 429 49"/></g><g fill-rule="nonzero" transform="translate(0 402)"><polygon points="0 60 0 0 38 0 38 10.099 11.975 10.099 11.975 26.328 34.877 26.328 34.877 36.425 11.975 36.425 11.975 60"/><path d="M38,60 L57.8675244,0 L74.1324756,0 L94,60 L81.6004765,60 L77.3160829,46.7033067 L54.3196569,46.7033067 L50.1206576,60 L38,60 Z M57.4165356,36.6851381 L74.1338099,36.6851381 L66.0053371,11.2486374 L65.5329998,11.2486374 L57.4165356,36.6851381 Z"/><polygon points="102 60 102 0 113.883 0 113.883 49.495 138 49.495 138 60"/><polygon points="147 60 147 0 158.961 0 158.961 24.457 165.069 24.457 182.667 0 195.747 0 174.726 28.699 196 60 182.268 60 165.069 34.509 158.961 34.509 158.961 60"/><polygon points="205 60 205 0 221.469 0 235.814 39.598 236.281 39.598 250.617 0 267 0 267 60 255.425 60 255.425 18.227 255.009 18.227 239.91 60 231.657 60 216.632 18.227 216.215 18.227 216.215 60"/><polygon points="282 60 282 0 321 0 321 10.099 293.768 10.099 293.768 24.706 317.101 24.706 317.101 34.758 293.768 34.758 293.768 49.901 321 49.901 321 60"/><path d="M332,60 L332,0 L359.689154,0 C363.414003,0 366.420006,0.432185683 368.707164,1.29655705 C370.994321,2.16092842 372.730728,3.42160247 373.916386,5.07857922 C375.102043,6.73555596 375.905266,8.74023437 376.326053,11.0926145 C376.746841,13.4449945 376.957235,16.0801235 376.957235,18.9980015 C376.957235,21.0247093 376.778619,23.2076672 376.421388,25.546875 C376.064157,27.8860828 375.311122,30.0374727 374.162283,32.0010447 C373.013445,33.9646166 371.217426,35.4228743 368.774227,36.3758176 L378,60 L365.400034,60 L356.598994,35.9002544 L359.581328,37.5667696 C359.166676,37.7720749 358.70118,37.8931232 358.184838,37.9299146 C357.668496,37.966706 357.055286,37.9851017 356.345206,37.9851017 L343.94906,37.9851017 L343.94906,60 L332,60 Z M343.94906,28.0255269 L354.861929,28.0255269 C357.208698,28.0255269 359.063452,27.8810865 360.426191,27.5922057 C361.78893,27.3033249 362.800574,26.8184502 363.461123,26.1375818 C364.121672,25.4567133 364.544432,24.5432867 364.729404,23.397302 C364.914375,22.2513172 365.006861,20.800327 365.006861,19.0443314 C365.006861,17.2456395 364.918101,15.7626272 364.740581,14.5952943 C364.563061,13.4279615 364.159806,12.5145349 363.530816,11.8550145 C362.901826,11.1954942 361.904208,10.7301508 360.537962,10.4589844 C359.171717,10.187818 357.300307,10.0522347 354.923732,10.0522347 L343.94906,10.0522347 L343.94906,28.0255269 Z"/><polygon points="390 60 390 0 429 0 429 10.099 401.768 10.099 401.768 24.706 425.101 24.706 425.101 34.758 401.768 34.758 401.768 49.901 429 49.901 429 60"/></g><g fill-rule="nonzero"><polygon points="429 0 429 362 353.389 362 353.389 109.968 350.674 109.968 252.04 362 198.133 362 143 219 217 219 225.285 238.911 228.336 238.911 321.979 0" opacity=".5"/><polygon points="0 362 0 0 236 0 236 60.928 74.374 60.928 74.374 158.844 216.602 158.844 216.602 219.763 74.374 219.763 74.374 362"/></g></g></svg>